<svg xmlns="http://www.w3.org/2000/svg" viewBox="0 0 185.5 51.19"><defs><style>.cls-1{fill:#231f20;}</style></defs><g id="Layer_2" data-name="Layer 2"><g id="Layer_1-2" data-name="Layer 1"><path class="cls-1" d="M21.88,27.9c.1.19.19.41.29.65a5.72,5.72,0,0,0,.29.65"/><line class="cls-1" x1="20.74" y1="29.87" x2="23.12" y2="27.57"/><path class="cls-1" d="M0,48.46l.07-.72a5.59,5.59,0,0,1,1.15-2.52A17.21,17.21,0,0,1,5,41a2.68,2.68,0,0,0,1-1.3,5.44,5.44,0,0,0,.26-1.8,39.34,39.34,0,0,0-.87-6.48c0-.28-.12-.79-.21-1.51a13.81,13.81,0,0,1-.15-1.87,8,8,0,0,1,3.82-6.77,4.29,4.29,0,0,1,2.23-.65,4.16,4.16,0,0,1,.94.08,1.58,1.58,0,0,1,.79.5.63.63,0,0,1,.21.43.8.8,0,0,1-.5.72,1.06,1.06,0,0,1-.65.07A3.82,3.82,0,0,0,9,23.69a6.06,6.06,0,0,0-2,3.67l-.07.94a8.39,8.39,0,0,0,.15,1.36c.57,3.08,1,5.64,1.15,7.71a3.37,3.37,0,0,0,.36.65c.43-.24.79-.46,1.08-.65L20.09,30l.93-.57a.63.63,0,0,1,.87.14.74.74,0,0,1,.32.51.72.72,0,0,1-.18.57,3.45,3.45,0,0,1-1.15,1.08l-5.54,4L9.36,40a3.3,3.3,0,0,0-1.44,2.3,15,15,0,0,1-1.37,5,7.76,7.76,0,0,1-2.09,3,3,3,0,0,1-2.08.93,2.18,2.18,0,0,1-1.16-.36A2.54,2.54,0,0,1,0,48.46ZM3,49a6.22,6.22,0,0,0,1.73-2.34,8.37,8.37,0,0,0,.79-3.28,10,10,0,0,0-3.6,4.54.49.49,0,0,0,0,.5.8.8,0,0,0,.22.58C2.35,49.25,2.64,49.25,3,49Z"/><path class="cls-1" d="M21.6,41.83A3.51,3.51,0,0,1,19.29,41,3.72,3.72,0,0,1,18,38.81a6.49,6.49,0,0,1-.15-1.87,13.65,13.65,0,0,1,3.39-7.85,4.37,4.37,0,0,1,2-1.59,2.12,2.12,0,0,1,.94-.21c.48.09.74.33.79.72v.29c0,.38-.14.6-.43.64a3.2,3.2,0,0,0-1.66.8,12.2,12.2,0,0,0-1.44,1.94A14,14,0,0,0,20,35.35a6.73,6.73,0,0,0-.28,2.09,3.17,3.17,0,0,0,.46,1.87A1.64,1.64,0,0,0,21.6,40a2.15,2.15,0,0,0,1.15-.36,2.78,2.78,0,0,0,.94-1A5.52,5.52,0,0,0,24.55,36a4.1,4.1,0,0,0-.65-2.09,9.84,9.84,0,0,1-.72-1.44v-.21a.76.76,0,0,1,.22-.58,1.1,1.1,0,0,1,.5-.29h2.23a11.54,11.54,0,0,0,4-.65l4-1.44L35.28,29a1.07,1.07,0,0,1,.93.57.81.81,0,0,1-.57,1.15l-2,.72-2.41.83a17.72,17.72,0,0,1-3.92.9,3.52,3.52,0,0,0-.94.18c-.14.07-.21.23-.21.47a3.87,3.87,0,0,0,.07.79,9.48,9.48,0,0,1,.14,1.3,6.71,6.71,0,0,1-.65,2.81,5.88,5.88,0,0,1-2.16,2.52A4,4,0,0,1,21.6,41.83Z"/><path class="cls-1" d="M63.61,41.72a3.4,3.4,0,0,1-1.33-2,6.12,6.12,0,0,1-.43-2.44,10.54,10.54,0,0,1,.5-3.32,16,16,0,0,1,4.18-7,10.72,10.72,0,0,1,2-1.55,4.44,4.44,0,0,1,2.19-.54,2.12,2.12,0,0,1,1.7.72,2.46,2.46,0,0,1,.46,1.95,6.52,6.52,0,0,1-1.8,3.74,23.87,23.87,0,0,1-3.31,3.06,7,7,0,0,1-3.45,1.33c-.29,0-.48.27-.58.65a3.72,3.72,0,0,0-.07.86A4,4,0,0,0,64,38.88a1.88,1.88,0,0,0,2.44,1.66,15.09,15.09,0,0,0,3.1-1.16,25.61,25.61,0,0,0,5.18-3.67l5.12-4.82,1.36-1.3a.71.71,0,0,1,1.08,0,.87.87,0,0,1,.22,1.08,3.27,3.27,0,0,1-.58.72,98.45,98.45,0,0,1-7.2,6.77,24.11,24.11,0,0,1-5.11,3.31,9.47,9.47,0,0,1-3.67.94A4,4,0,0,1,63.61,41.72Zm6.73-12.56A3.33,3.33,0,0,0,71,27.5c0-.48-.26-.67-.65-.57a2.89,2.89,0,0,0-1.29.5,11.28,11.28,0,0,0-4.32,5.69c0,.24,0,.36.14.36s.38.12.43.07A11.86,11.86,0,0,0,70.34,29.16Z"/><path class="cls-1" d="M80.93,45.22a2.23,2.23,0,0,1-2.16-1.66,12,12,0,0,1-.44-2,5.69,5.69,0,0,1-.07-.93,5,5,0,0,1,.07-.94,29.29,29.29,0,0,1,4.11-12,13.21,13.21,0,0,1,1.73-2.23,2.48,2.48,0,0,1,1-.51.49.49,0,0,1,.29-.07.71.71,0,0,1,.58.29.82.82,0,0,1,.07.86l-.43.58A10.18,10.18,0,0,0,84,28.73a21.35,21.35,0,0,0-1.44,2.81,26.42,26.42,0,0,0-2.3,7.92,7.36,7.36,0,0,0-.08,1.22,4.94,4.94,0,0,0,.44,2.23.67.67,0,0,0,.79.29,3.37,3.37,0,0,0,1-.65,9.45,9.45,0,0,0,.83-.86,57.87,57.87,0,0,0,5-7.42,12.32,12.32,0,0,1,.93-1.65.78.78,0,0,1,1-.44,1,1,0,0,1,.72,1.08l-.29,1.88-.07,1a7.84,7.84,0,0,0,.65,3.1C91.61,40.39,92.25,41,93,41a3.25,3.25,0,0,0,2.09-1.08,7,7,0,0,0,1.22-2.23,20.11,20.11,0,0,0,1.08-5.55,17.12,17.12,0,0,0,.08-1.87c.09-.53.28-.84.57-.94l.36-.07a1,1,0,0,1,.87.58l.5.72a5.64,5.64,0,0,0,2,1.47,5.78,5.78,0,0,0,2.41.54,4.65,4.65,0,0,0,2.45-.57c.43-.24.92-.55,1.48-.94l1.26-.86a1.71,1.71,0,0,1,.86-.43.9.9,0,0,1,.65.28.73.73,0,0,1,.21.51,1.46,1.46,0,0,1-.57,1.08A22.87,22.87,0,0,1,108.65,33a7.1,7.1,0,0,1-4.32,1.44,8.58,8.58,0,0,1-2.88-.51q-1.31-.44-2-.72A4.2,4.2,0,0,0,99,34.56c-.07.48-.13.82-.18,1a12.85,12.85,0,0,1-1.65,4.61,4.92,4.92,0,0,1-2.81,2.37,3.73,3.73,0,0,1-1.51.29,3.43,3.43,0,0,1-2.67-1.37A5.93,5.93,0,0,1,89,39.17a1.61,1.61,0,0,0-.65-1.23,2.91,2.91,0,0,0-.93,1c-.24.4-.41.68-.51.82l-1.15,1.52c-1,1.24-1.49,1.92-1.58,2a6.57,6.57,0,0,1-1.73,1.51A2.9,2.9,0,0,1,80.93,45.22Z"/><path class="cls-1" d="M135.07,30.46a3.46,3.46,0,0,1-1,1.51A40.65,40.65,0,0,1,130.21,35a22.73,22.73,0,0,1-3.85,2.41,4.52,4.52,0,0,1-1.51.36,2.43,2.43,0,0,1-1.73-.68,3.77,3.77,0,0,1-1-1.91,18.23,18.23,0,0,1-.22-4.47,17.78,17.78,0,0,0-.07-1.87.31.31,0,0,0-.18-.25.23.23,0,0,0-.32,0,3.5,3.5,0,0,0-.87.72,25.64,25.64,0,0,0-3.16,4.46,75.38,75.38,0,0,0-4.76,8.93l-1.65,3.09a4.14,4.14,0,0,1-1.15,1.52,1.61,1.61,0,0,1-.87.36,1.23,1.23,0,0,1-1.15-.94,7.92,7.92,0,0,1-.22-1.87,43.53,43.53,0,0,1,.65-8.21c.1-.62.29-1.56.58-2.81l.5-2.73c0-.15.12-.4.22-.76a4,4,0,0,0,.14-1,2.61,2.61,0,0,0-.21-1,.4.4,0,0,1-.08-.29,1.06,1.06,0,0,1,.18-.57c.12-.2.21-.34.26-.44A10.5,10.5,0,0,0,111,24.7c.36-1,.58-1.59.68-1.88A98.31,98.31,0,0,1,121,3.38,30.59,30.59,0,0,1,122.9.72a3.45,3.45,0,0,1,.94-.65.27.27,0,0,1,.21-.07.78.78,0,0,1,.51.18.52.52,0,0,1,.21.4,3.29,3.29,0,0,1-.14,1.15c-.14.48-.41,1.2-.79,2.16q-2.52,5.61-4.72,9.83t-4.71,8.1a16.64,16.64,0,0,0-1.8,4A73.93,73.93,0,0,0,109.44,41a17.78,17.78,0,0,0-.07,1.87c0,.05,0,.36.14.94a2.77,2.77,0,0,0,1-1.19c.19-.46.33-.78.43-1a94.23,94.23,0,0,1,5-9.29A23.85,23.85,0,0,1,119.16,28a9.37,9.37,0,0,1,1.94-1.73,1.64,1.64,0,0,1,1.08-.36c.87,0,1.37.48,1.51,1.44a4,4,0,0,1,.08.94v1.58c0,.34,0,.74,0,1.22a13.75,13.75,0,0,0,0,1.66,8.37,8.37,0,0,0,.14,1.87c.14.82.48,1.23,1,1.23a2,2,0,0,0,.86-.22,20.9,20.9,0,0,0,3.75-2.38,27.23,27.23,0,0,0,3.52-2.95,6,6,0,0,1,.8-.79c.24-.19.52-.17.86.07A.9.9,0,0,1,135.07,30.46Zm-17.5-17.28h.08V13.1a1.63,1.63,0,0,0,.43-1.15A2.28,2.28,0,0,1,117.57,13.18Zm1.08-1.73a2.32,2.32,0,0,0-.43.36Zm.36-.72a.29.29,0,0,1,.08-.22l-.22.58A.69.69,0,0,0,119,10.73Z"/><path class="cls-1" d="M132.51,41.72a3.45,3.45,0,0,1-1.33-2,6.31,6.31,0,0,1-.43-2.44,10.54,10.54,0,0,1,.5-3.32,16.12,16.12,0,0,1,4.18-7,10.72,10.72,0,0,1,2-1.55,4.45,4.45,0,0,1,2.2-.54,2.1,2.1,0,0,1,1.69.72,2.46,2.46,0,0,1,.47,1.95,6.52,6.52,0,0,1-1.8,3.74,24.45,24.45,0,0,1-3.31,3.06,7,7,0,0,1-3.46,1.33c-.29,0-.48.27-.58.65a4.38,4.38,0,0,0-.07.86,4.12,4.12,0,0,0,.29,1.66,1.89,1.89,0,0,0,2.45,1.66,15.25,15.25,0,0,0,3.09-1.16,25.67,25.67,0,0,0,5.19-3.67l5.11-4.82,1.37-1.3a.71.71,0,0,1,1.08,0,.87.87,0,0,1,.21,1.08,3.17,3.17,0,0,1-.57.72,98.45,98.45,0,0,1-7.2,6.77,24.36,24.36,0,0,1-5.11,3.31,9.52,9.52,0,0,1-3.68.94A4,4,0,0,1,132.51,41.72Zm6.74-12.56a3.3,3.3,0,0,0,.64-1.66c0-.48-.26-.67-.64-.57a2.88,2.88,0,0,0-1.3.5,11.28,11.28,0,0,0-4.32,5.69c0,.24.05.36.14.36s.39.12.44.07A12,12,0,0,0,139.25,29.16Z"/><path class="cls-1" d="M146.45,45.5c0-.19,0-.48,0-.86a4.63,4.63,0,0,1,0-1,41.79,41.79,0,0,1,3.16-11.52l2.31-5.4a3,3,0,0,0,.25-.47,3.28,3.28,0,0,1,.32-.54.82.82,0,0,1,.87-.21c.43.14.6.38.5.72a4.11,4.11,0,0,1-.36,1.58c-.38,1-1,2.4-1.87,4.32a48.94,48.94,0,0,0-2.3,6.63,5.7,5.7,0,0,0-.29,1.44,2,2,0,0,0,.21.86h-.07l.07.07,2.81-5.69a19.48,19.48,0,0,1,3.46-4.68,9.53,9.53,0,0,1,1.65-1.36,1.87,1.87,0,0,1,.87-.22,1.55,1.55,0,0,1,1.37.86,5.85,5.85,0,0,1,.39.83,4.58,4.58,0,0,0,.4.83c.53.86,1.1,1.3,1.73,1.3a2.86,2.86,0,0,0,1.22-.36A19.22,19.22,0,0,0,167,29.88a4.22,4.22,0,0,1,.93-.72.42.42,0,0,1,.29-.07,1,1,0,0,1,.58.21.71.71,0,0,1,.21.87,2.41,2.41,0,0,1-.65.93,15.77,15.77,0,0,1-4.75,3.39,3.64,3.64,0,0,1-1.65.36,3.52,3.52,0,0,1-3-1.59l-1.08-1.72a1.59,1.59,0,0,0-1.22.72,18.92,18.92,0,0,0-3.24,4.6l-1.37,2.74q-.28.72-2.09,4.25a18.36,18.36,0,0,1-1.29,2.23,1.2,1.2,0,0,1-2.23-.58Z"/><path class="cls-1" d="M166.5,41.72a3.46,3.46,0,0,1-1.34-2,6.5,6.5,0,0,1-.43-2.44,10.59,10.59,0,0,1,.51-3.32,16.11,16.11,0,0,1,4.17-7,11,11,0,0,1,2.05-1.55,4.45,4.45,0,0,1,2.2-.54,2.1,2.1,0,0,1,1.69.72,2.43,2.43,0,0,1,.47,1.95,6.52,6.52,0,0,1-1.8,3.74,23.87,23.87,0,0,1-3.31,3.06,7,7,0,0,1-3.46,1.33c-.29,0-.48.27-.57.65a3.61,3.61,0,0,0-.08.86,4.12,4.12,0,0,0,.29,1.66,1.89,1.89,0,0,0,2.45,1.66,15.31,15.31,0,0,0,3.1-1.16,25.61,25.61,0,0,0,5.18-3.67l5.11-4.82,1.37-1.3a.71.71,0,0,1,1.08,0,.87.87,0,0,1,.22,1.08,3.27,3.27,0,0,1-.58.72,98.45,98.45,0,0,1-7.2,6.77,24.11,24.11,0,0,1-5.11,3.31,9.52,9.52,0,0,1-3.67.94A3.9,3.9,0,0,1,166.5,41.72Zm6.73-12.56a3.33,3.33,0,0,0,.65-1.66c0-.48-.27-.67-.65-.57a2.92,2.92,0,0,0-1.3.5,11.28,11.28,0,0,0-4.32,5.69q0,.36.15.36c.24.1.38.12.43.07A11.86,11.86,0,0,0,173.23,29.16Z"/><path class="cls-1" d="M32.29,44.39a1.15,1.15,0,0,1-.32-.83c0-1.15,0-2,.07-2.52a68.79,68.79,0,0,1,1.87-8.78A60.93,60.93,0,0,1,38.3,20.59a4.35,4.35,0,0,0,.36-.68,1.6,1.6,0,0,1,.58-.69.67.67,0,0,1,.65-.07,2.53,2.53,0,0,1,.43.51v.28a2.49,2.49,0,0,1-.25,1q-.26.54-.33.75a70.26,70.26,0,0,0-3.31,8.79,80.4,80.4,0,0,0-2.09,8,1.1,1.1,0,0,0,0,.5.89.89,0,0,1,0,.43.8.8,0,0,0,.36.08.4.4,0,0,0,.4-.26,1.18,1.18,0,0,1,.18-.32c.52-.91.84-1.44.93-1.58l2.59-4.54a23.45,23.45,0,0,1,3.32-4.25,10.38,10.38,0,0,1,1.44-1.22,1.69,1.69,0,0,1,.79-.22,1.33,1.33,0,0,1,1.3,1,5,5,0,0,1,.36,2.51,16.09,16.09,0,0,1-.08,1.87c-.08.69-.09,1-.11,1.41,0,.14,0,.4,0,.73v.77c0,.48.08.68.28.77s.61-.09.79-.32l1.58-1.93L50,31.36c.51-.85,1.42-2.15,1.43-2.17A18.18,18.18,0,0,1,53,27.42a1.42,1.42,0,0,1,1.55.15,6.26,6.26,0,0,1,1.18,2c.33.78.61,1.66,1.29,3.66.1.29.4,1.07.82,2.17.24.61.53,1.36.71,1.74.36.64.46.9.89.89s1.1-.72,1.25-.85a8.55,8.55,0,0,0,.93-1.45c.25-.43.68-1.72.81-2,.26-.65.58-1.52,1.07-2.58a10.79,10.79,0,0,1,.81-1.33c.26-.38.48-.58.75-.62a1.08,1.08,0,0,1,.86.24.58.58,0,0,1,.24.53c0,.24-.08.41-.38.88S65.18,32,65,32.34l-1.42,3.33A13.78,13.78,0,0,1,62.76,37c-.63.79-.28.39-1,1.25l-.79.72a2.82,2.82,0,0,1-1.37.46c-1.54.28-2.12-1-2.81-2.63-.34-1-1.4-4.22-1.59-4.89-.14-.52-.81-2.59-1.58-2.5s-1.84,2-2.35,2.87-1.42,2.39-1.72,2.83-1.43,2.06-1.83,2.48a5.72,5.72,0,0,1-1.61,1.16l-.58.14a1.45,1.45,0,0,1-1.22-.72,4.73,4.73,0,0,1-.43-1.58,12.56,12.56,0,0,1-.08-1.66c.1-1.44.18-2.15.22-2.87,0-.14,0-.72,0-.9s0-.33,0-.48c0-.43-.17-.67-.5-.72h-.14a.89.89,0,0,0-.69.47l-.47.68a42.66,42.66,0,0,0-3.16,4.68L35.64,42a8.18,8.18,0,0,1-1.58,2.3,1.32,1.32,0,0,1-.94.43A1.15,1.15,0,0,1,32.29,44.39Z"/></g></g></svg>